# xmcd
# Copyright (C) 1995-1998 Ti Kan
#
# Track frame offsets:
#       150
#       34892
#       67076
#       96789
#       119476
#       138911
#       176258
#       200607
#       221553
#       256934
#
# Disc length: 3746 seconds
#
# Revision: 0
# Processed by: cddbd v1.5.2PL0 Copyright (c) Steve Scherf et al.
# Submitted via: CD-Import v1.0
#
DISCID=930ea00a
DTITLE=Gregor Frei Asmin Sextet - Land Of Refuge
DYEAR=09
DGENRE=
TTITLE0=Smoke Drifting
TTITLE1=Confrontation
TTITLE2=Missing
TTITLE3=Land Of Refuge
TTITLE4=That Little Radio In My Head
TTITLE5=Kurdistan
TTITLE6=Mephistory
TTITLE7=Golden Mary
TTITLE8=We Did, We Do But Of Course We Won't Do It Again
TTITLE9=Stoned Fishbone
EXTD=
EXTT0=
EXTT1=
EXTT2=
EXTT3=
EXTT4=
EXTT5=
EXTT6=
EXTT7=
EXTT8=
EXTT9=
PLAYORDER=
